<svg xmlns="http://www.w3.org/2000/svg" viewBox="0 0 288 288"><defs><style>.a{fill:#fff;}.b{fill:#026699;}.c{fill:#fe0436;}.d{fill:#fefdfd;}</style></defs><title>favicon</title><circle class="a" cx="144" cy="144" r="144"/><path class="b" d="M191.42,158.4h8.81c-3.19,2.45-6,4.54-9.66,5.42s-7,1.46-10.44,2.39h5.77l0.1,0.25-4.77,2.87-8.08,4.81c-1.46.87-1.53,1.52-.28,2.75,4.84,4.75,9.66,9.51,14.55,14.21a1.51,1.51,0,0,1,.28,2.36,41.37,41.37,0,0,1-12.34,11.34c-0.81.52-1.1,0.22-1.41-.51q-3.8-8.77-7.65-17.51a1.79,1.79,0,0,1,0-1.55c5.08-12.32,6.17-25.15,4.87-38.28a1.11,1.11,0,0,0-1-1.15c-8.54-1.95-17.07-4-25.62-5.85-1.73-.38-3.41.55-5.1,0.92-7.1,1.57-14.17,3.29-21.26,4.88a1.38,1.38,0,0,0-1.28,1.46c-1.28,13-.24,25.67,4.78,37.85a2.84,2.84,0,0,1-.06,2.51c-2.38,5.31-4.69,10.65-7,16-0.8,1.83-.79,1.84-2.54.71a38.58,38.58,0,0,1-11.64-11,1.28,1.28,0,0,1,.22-2q7.31-7.07,14.56-14.2c1.5-1.47,1.43-2-.32-3l-11.92-7.13a0.93,0.93,0,0,1-.66-0.67H108c-6.91-1.7-14.24-2.16-19.74-7.79h8.17l0-.35-5.21-.83c-2.21-.34-4.43-0.71-6.65-1-4.09-.53-7.19-2.69-10-5.9H87.6l0-.34-8.28-1.2c-2.71-.4-5.42-0.77-8.12-1.24-3.07-.53-5.28-2.34-7.12-5H78.75a3.55,3.55,0,0,0-2.11-.61q-7.14-.74-14.24-1.75c-3.65-.51-6.14-2.56-8.19-5.7h15l0-.31c-3.09-.32-6.17-0.62-9.25-1q-3.41-.38-6.82-0.86a9,9,0,0,1-6.62-4.62c-0.55-.9-0.62-1.33.71-1.31,4.54,0.06,9.07,0,13.61,0a5.94,5.94,0,0,0,1.75-.23l-11.86-1.35c-1.63-.19-3.26-0.39-4.89-0.63-3.3-.49-5.23-2.72-7.06-5.56H60.09l0-.33c-2.89-.32-5.77-0.63-8.66-1q-6.23-.74-12.46-1.52c-2.8-.36-4.29-2.28-5.41-4.64-0.3-.64,0-0.77.57-0.75,0.8,0,1.59,0,2.39,0,13.76,0,27.52,0,41.28-.08,3.89,0,7.77-.18,11.66,0,7.09,0.28,13.14,3.26,18.78,7.32,3.94,2.84,7.17,6.47,10.79,9.66A78.19,78.19,0,0,0,126,133c2.13,1.48,2.85,1.35,4.83-.33s2.72-3.88,3.6-6.1c0.44-1.11,1.24-2.32,1.07-3.35s-1.87-1-2.8-1.62a8.67,8.67,0,0,1-2.23-2c-0.21-.28-0.6-0.83.12-0.82,2.81,0,5.69-.51,8.39.82,1.75,0.87,2.14,1.55,1.61,3.43-1,3.4-1.94,6.8-3,10.17-0.31,1-.07,1.15.82,1.31,4.73,0.85,9.44.31,14.15-.13,0.63-.06.69-0.37,0.61-0.9-1-6.3-2-12.6-3-18.89a2.57,2.57,0,0,0-1.86-2c-3-1.15-6.08-.77-9.11,0-0.79.2-.57,0.65-0.11,1.06a2.15,2.15,0,0,0,1.51.56c1.31-.06,1,0.57.59,1.24a2.79,2.79,0,0,1-1.94,1.26,24.8,24.8,0,0,1-6,.32,19.2,19.2,0,0,0-2.83.09c-1.62.26-2,1.08-1.53,2.64,0.08,0.26.44,0.53,0.15,0.79a0.85,0.85,0,0,1-1.1-.1c-1.67-1.25-1.91-3.07-1.79-5a3.33,3.33,0,0,1,2.64-3.23,14.26,14.26,0,0,1,5.79-.2,1.25,1.25,0,0,0,1.53-.68,9.12,9.12,0,0,1,8.32-4.63c4.13-.05,8.18,1.13,12.27.73a0.81,0.81,0,0,1-.21.95,8.5,8.5,0,0,0-1.58,7.76c1,4.46,1.6,9,2.39,13.53a9.1,9.1,0,0,0,1.18,3.2,1.65,1.65,0,0,0,2.6.69A59.52,59.52,0,0,0,170,126.6c3.78-3.39,7.24-7.12,11.49-10a34.59,34.59,0,0,1,20.17-6.33c17.25,0.16,34.5.15,51.74,0.21h1.34a6.77,6.77,0,0,1-5.59,5.39c-7,1-13.94,1.69-20.93,2.44a2.23,2.23,0,0,0-1.54.43h22.76c-1.9,2.8-3.83,5.12-7.23,5.52l-15.59,1.81-1.22.17a11.6,11.6,0,0,0,3.45.21c4,0,8.08,0,12.12,0,1.28,0,1.31.33,0.72,1.31a9.33,9.33,0,0,1-6.92,4.67c-5.32.78-10.68,1.19-16,2h15.37c-1.87,2.74-3.85,4.88-7,5.52-5,1-10.16,1.43-15.25,2a10.93,10.93,0,0,0-2.74.6h14.93c-1.81,2.71-4,4.55-7.08,5-4.82.78-9.65,1.43-14.48,2.13a5.6,5.6,0,0,0-2.12.58h13.17c-2.52,2.91-5.19,5.1-8.83,5.74s-7.57,1.2-11.36,1.79l-2,.34Z"/><path class="c" d="M144.05,10.56A254,254,0,0,0,156,34.85C161,44,166.27,53.07,171.27,62.26c5.47,10,10.14,20.43,12.73,31.65,0.24,1,.47,2,0.63,3.07s0.42,1.14,1.34.7a64,64,0,0,1,19.91-5.6Q230.35,89.2,248.44,106a2.59,2.59,0,0,1,.3.33,2.64,2.64,0,0,1,.18.35,8.07,8.07,0,0,1-2.59.17,22.43,22.43,0,0,1-13.56-3.08c-10.41-5.86-21.68-6.07-33.1-3.28a51.62,51.62,0,0,0-19.27,8.87c-1.15.87-1.35,0.6-1.44-.72-1-14.56-6.06-27.83-12.76-40.61-5.67-10.81-12-21.25-17.78-32-1.45-2.7-2.87-5.42-4.4-8.31-1.28,2.44-2.47,4.73-3.68,7-6.19,11.66-13.15,22.9-19.16,34.65-4.85,9.48-8.95,19.24-10.87,29.79-0.53,2.89-.85,5.81-1.12,8.74-0.06.69-.16,1.37-0.26,2.26-1-.68-1.84-1.26-2.7-1.83A54,54,0,0,0,68,99.4a41.36,41.36,0,0,0-17.1,6.76,4,4,0,0,1-2.36.67c-3.08,0-6.16,0-9.55,0a34.11,34.11,0,0,1,6-5.33c12-8.55,25.33-11.44,39.84-9.06a66.6,66.6,0,0,1,17.39,5.27c0.61,0.29,1,.53,1.18-0.48,2.9-15.31,9.95-28.92,17.45-42.34,7.07-12.65,14.52-25.1,20.53-38.32C142.24,14.63,143.1,12.69,144.05,10.56Z"/><path class="c" d="M76.75,188.48a22.89,22.89,0,0,0,9.18,17.66c4.35,3.43,9.3,3.4,14.33,1.58a24.14,24.14,0,0,0,6.07-3.18,1.08,1.08,0,0,1,1.55-.07c1.5,1.15,3.06,2.23,4.61,3.31,0.51,0.35.72,0.56,0.08,1.06-6.32,4.87-13.19,8-21.42,7a21.22,21.22,0,0,1-10.79-4.78L79.06,210a19.75,19.75,0,0,0,.54,6.17C82,227,87.83,235.26,98.16,239.75c8.29,3.6,16.15,2.38,23.31-3.18,2.44-1.89,2.35-1.87,3.41,1A91.11,91.11,0,0,0,141.32,265c0.86,1,1.68,2.7,2.79,2.65,0.92,0,1.81-1.67,2.64-2.66,7.37-8.7,13.36-18.22,17-29.1,0.36-1.07.7-1.06,1.46-.39a23.72,23.72,0,0,0,11.14,5.79c6.51,1.28,12.44-.25,18-3.78,8.91-5.71,15.06-17.06,14.74-27.24a0.81,0.81,0,0,0-.86.44c-7.68,6.31-16,6.81-24.93,3a40.3,40.3,0,0,1-7.51-4.58c-0.93-.67-0.63-1,0.09-1.45,1.4-1,2.8-1.91,4.13-3a1.36,1.36,0,0,1,1.93,0,22.51,22.51,0,0,0,10.59,4.16,13,13,0,0,0,10.27-3.14c5.1-4.44,8.21-9.94,8.55-16.85,0.66,0.07.63,0.7,0.82,1.08,6.89,13.44,5.73,33.68-5.94,46.65-7.27,8.07-16.1,12.73-27.22,12.25a25.8,25.8,0,0,1-10.08-2.5c-1.1-.52-1.44-0.24-1.93.75-5.52,11.29-12.55,21.48-22,29.9-0.81.72-1.21,0.6-1.93,0-9.38-8.4-16.4-18.54-21.91-29.78-0.53-1.08-.88-1.27-2-0.78-9.82,4.19-19.39,3.27-28.29-2.32-12.42-7.8-18.48-19.36-19-34A40.83,40.83,0,0,1,76.38,189C76.44,188.89,76.53,188.79,76.75,188.48Z"/><path class="c" d="M255.48,115.2a34.15,34.15,0,0,1,4.18,10.33c3.74,17.17-.43,32.38-11.73,45.66a62.46,62.46,0,0,1-24.26,17.52c2.95-14.46-3.87-23.87-15.86-30.8,2-1.33,4.11-2.71,6.19-4.11,0.64-.43,1,0,1.46.31a35.72,35.72,0,0,1,15.24,20.71c0.47,1.71.48,1.72,1.94,0.65,9.52-7,16.68-15.68,19.73-27.29,2.27-8.64,2.21-17.25-1.23-25.65a1.61,1.61,0,0,1,.23-1.87C252.75,118.92,254,117.11,255.48,115.2Z"/><path class="c" d="M64.35,188.62a59.68,59.68,0,0,1-16.78-10.13c-9.45-7.95-16.3-17.6-19.11-29.76-2.62-11.33-1.9-22.35,3.68-32.79,0.11-.21.25-0.4,0.47-0.74,1.54,2,3,4,4.47,5.91a1,1,0,0,1,0,1.09c-5.73,15.3-2.79,29.24,6.71,42.09a52.9,52.9,0,0,0,12.07,11.5c0.86,0.61,1.11.58,1.4-.52A35.93,35.93,0,0,1,72.58,154.1a1.47,1.47,0,0,1,2,0c1.9,1.34,3.85,2.6,6,4a24.63,24.63,0,0,0-8.82,6c-6.44,6.75-9.68,14.51-7.35,24a2,2,0,0,1,0,.57Z"/><path class="b" d="M144,162.79c-7.58,0-15.16,0-22.73,0a1,1,0,0,1-1.24-1.15c-0.18-3.84-.13-7.67.05-11.51a1.46,1.46,0,0,1,1.35-1.58q11-2.47,22-5c1.4-.32,2.65.32,3.93,0.61,6.41,1.42,12.8,3,19.21,4.39a1.51,1.51,0,0,1,1.42,1.66,102.23,102.23,0,0,1,.05,11.2c-0.05,1.07-.29,1.42-1.44,1.42C159.06,162.76,151.53,162.79,144,162.79Zm14.25-9.71c-0.86-1.48-.18-2.37,1-3.16-1.51.18-2.45-.29-2.67-1.91-0.17,1.65-1.19,2-2.62,1.95a2.15,2.15,0,0,1,1,3.22C156.08,152,157.08,151.87,158.25,153.08Zm-24.18-3.28c-1.74.58-2.32-.41-2.77-1.73-0.13,1.68-1.15,2-2.59,1.87,1.32,0.78,1.84,1.71,1,3.17,1.14-1.19,2.19-1,3.42,0C131.94,151.55,132.92,150.76,134.07,149.79Zm3.65-3.31a2.09,2.09,0,0,1-2.65,1.95c1.45,0.71,1.62,1.72,1,3.09,1.1-1.21,2.14-1,3.26-.06-0.85-1.39-.2-2.26.88-3.08C138.69,148.67,138,147.93,137.72,146.49Zm9.15,0.11c-1.86.57-2.49-.26-2.85-1.63-0.23,1.54-1.06,2.11-2.69,1.91,1.73,0.59,1.55,1.76,1.17,3.07,1.13-1.33,2.13-.86,3.14.11C145.29,148.06,145.29,148.06,146.87,146.6Zm6.07,1.79c-1.49.23-2.38-.29-2.63-1.85-0.26,1.55-1.13,2.08-2.62,1.85,1.2,0.77,1.77,1.65,1,3.09,1.12-1.2,2.16-.84,3.28,0C151.06,150,151.78,149.16,152.94,148.39Zm-29.58,12.7a4.82,4.82,0,0,1,1.68-.89,5,5,0,0,1,1.77.92c-0.87-1.53-.36-2.48.9-3.27-1.72.44-2.29-.54-2.75-1.8-0.12,1.63-1.12,2-2.57,1.8C123.9,159.27,123.9,159.27,123.36,161.09Zm15.1,0c1.12-1.21,2.17-1,3.32-.05-1-1.48-.12-2.33.9-3.2-1.5.29-2.32-.26-2.49-1.85-0.86,1.72-.86,1.72-2.86,2C138.8,158.67,139.18,159.66,138.46,161.1Zm15.4-.05c1.12-1.29,2.14-.82,3.25,0-0.91-1.47-.23-2.36,1-3.18-1.59.37-2.36-.33-2.74-1.9,0,1.91-1.21,2-2.56,2C154.08,158.68,154.56,159.61,153.86,161Zm6.49-3.14a2.07,2.07,0,0,1,1,3.18,2.1,2.1,0,0,1,3.3-.06c-1-1.52-.09-2.34,1-3.17-1.64.39-2.3-.44-2.7-1.89C162.82,157.68,161.87,158.07,160.35,157.91Zm-9.52-.2c-1.81.43-2.62-.16-2.92-1.64-0.23,1.61-1.16,2.05-2.65,1.82,1.27,0.77,1.8,1.71,1.06,3.17,1.12-1.13,2.13-1,3.18.06C149.13,159.2,149.13,159.2,150.83,157.71ZM130.93,161c1.57-.9,1.57-0.9,3.41.07-1-1.48-.22-2.35.83-3.19a2,2,0,0,1-2.61-1.7c-0.21,1.65-1.32,1.8-2.61,1.82C131.31,158.7,131.7,159.63,130.93,161Zm-4.31-6.39c-0.64-1.37-.28-2.33,1.07-3.12-1.89.74-2.17-.68-2.81-2-0.05,1.78-1,2.21-2.41,2.23,1.74,0.62,1.36,1.78,1,3C124.45,153.61,125.46,153.49,126.62,154.58Zm34.72,0.11c1.05-1.42,2.14-.9,3.38.16-0.63-2-.63-2,0.81-3.37-1.59.34-2.27-.45-2.59-1.84a2.07,2.07,0,0,1-2.57,2C161.89,152.3,161.91,153.31,161.34,154.69Z"/><path class="b" d="M164.52,189.09c1.62,3.68,3.14,7.13,4.65,10.59q1.85,4.24,3.67,8.5c0.71,1.67.52,2.21-1.06,3.15s-1.64,1-.55,2.57c2.61,3.86,6.64,4.36,10.79,4.55,0.74,0,1.49-.15,2.23-0.1,2.27,0.15,3.21,1.21,3.11,3.49a5.76,5.76,0,0,1-3,4.82,0.83,0.83,0,0,1-.13-0.3c0.84-4.35-.48-4-3.18-4-4.89.06-9.78,0.13-14.66,0-3.46-.11-3.64,1.15-3.09,3.7a4.38,4.38,0,0,1-2.52-5.81,2.74,2.74,0,0,1,2.64-1.61,22.15,22.15,0,0,0,4.28-.55c0.95-.26,1-0.58.47-1.29s-1-2-1.75-2.56-1.9.43-2.88,0.67c-3.13.78-3.11,0.8-4.35-2.19q-2.12-5.1-4.26-10.19c-0.21-.5-0.52-0.91.09-1.43a37.83,37.83,0,0,0,5.27-5.49A53.6,53.6,0,0,0,164.52,189.09Z"/><path class="b" d="M125.12,226a1.1,1.1,0,0,1,0-.86c0.23-2.14-.35-2.78-2.54-2.78h-16c-2.63,0-3.15.61-2.73,3.22,0.05,0.32.12,0.65,0.2,1.09a5.71,5.71,0,0,1-2.85-3.08c-1.35-3.24.27-5.61,3.73-5.28a18.88,18.88,0,0,0,7.33-.94,9.14,9.14,0,0,0,5.27-4.34c0.41-.67.4-1-0.35-1.36-0.32-.13-0.6-0.35-0.91-0.51-1.32-.66-1.58-1.6-1-3,2.12-4.77,4.18-9.57,6.27-14.35,0.63-1.45,1.27-2.9,2-4.52,1.17,1.76,2.21,3.42,3.34,5a34,34,0,0,0,5.92,6.49,1.27,1.27,0,0,1,.48,1.75q-2.53,5.81-4.9,11.69a1.3,1.3,0,0,1-1.76.94,17.81,17.81,0,0,1-3.86-1.1,0.85,0.85,0,0,0-1.33.43,9.13,9.13,0,0,1-.55.89c-1.54,2.53-1.54,2.54,1.48,3,0.59,0.08,1.19.07,1.79,0.11,3.06,0.19,4.33,2.08,3.32,5A3.52,3.52,0,0,1,125.1,226Z"/><path class="c" d="M144.09,33.4c0.6,8.31,1.18,16.4,1.76,24.5q1.59,22.22,3.2,44.43c0.08,1.1-.3,1.24-1.22,1.22-2.49,0-5-.05-7.48,0-1,0-1.26-.23-1.18-1.26,0.48-6.31.89-12.62,1.32-18.94q1.63-23.49,3.27-47C143.83,35.46,144,34.53,144.09,33.4Z"/><path class="c" d="M235.71,137.38c1,3,1.9,5.62,2.71,8.28a1.45,1.45,0,0,0,1.65,1.27c2.74-.07,5.47,0,8.31,0a1.78,1.78,0,0,1-1,1c-1.88,1.39-3.75,2.8-5.69,4.12a1.41,1.41,0,0,0-.59,2c0.92,2.62,1.73,5.27,2.68,8.24-2.56-1.85-4.86-3.47-7.11-5.17a1.32,1.32,0,0,0-1.92,0c-2.24,1.71-4.55,3.33-7.1,5.18,1-3,1.8-5.68,2.72-8.35a1.33,1.33,0,0,0-.59-1.84c-2.29-1.58-4.5-3.26-7.07-5.14,3.08,0,5.78,0,8.48,0a1.59,1.59,0,0,0,1.9-1.34C233.85,143,234.74,140.37,235.71,137.38Z"/><path class="c" d="M52,137.37c1,3,1.88,5.65,2.68,8.31a1.45,1.45,0,0,0,1.67,1.23c2.76-.06,5.53,0,8.64,0-2.49,1.82-4.69,3.49-7,5.06a1.41,1.41,0,0,0-.67,1.94c0.91,2.62,1.71,5.27,2.68,8.3-2.52-1.83-4.74-3.38-6.89-5a1.58,1.58,0,0,0-2.3,0c-2.16,1.67-4.4,3.22-6.94,5,1-3,1.75-5.57,2.67-8.12a1.58,1.58,0,0,0-.69-2.21c-2.25-1.53-4.43-3.18-6.92-5,3,0,5.65-.08,8.3,0a1.82,1.82,0,0,0,2.16-1.6C50.12,142.8,51,140.32,52,137.37Z"/><path class="b" d="M144.11,214.93a48.15,48.15,0,0,1-10.8-1.14c-1-.22-1-0.59-0.71-1.42,1.06-2.62,2.09-5.26,3.07-7.92,0.31-.84.6-0.94,1.33-0.42a37.46,37.46,0,0,0,6.16,3.32,1.88,1.88,0,0,0,1.69,0,36.48,36.48,0,0,0,6.4-3.49c0.71-.5,1-0.36,1.25.4,1,2.75,2,5.49,3.14,8.21,0.35,0.87.07,1.1-.72,1.29A46.91,46.91,0,0,1,144.11,214.93Z"/><path class="c" d="M142.34,184.79c0-5.68,0-11.36,0-17,0-1,.21-1.38,1.2-1.24a4.58,4.58,0,0,0,1.19,0c0.93-.12,1.17.28,1.17,1.18q0,17.2,0,34.39a1.69,1.69,0,0,1-1.89,1.79,1.5,1.5,0,0,1-1.7-1.73C142.39,196.36,142.34,190.58,142.34,184.79Z"/><path class="c" d="M138.52,200.89a20.64,20.64,0,0,1-3.13-2.26,1.48,1.48,0,0,1-.42-1.36q0-14.8,0-29.6c0-.89.18-1.32,1.14-1.17a3.41,3.41,0,0,0,1,0c1.11-.18,1.42.24,1.41,1.38-0.05,7.32,0,14.65,0,22v11Z"/><path class="c" d="M149.65,200.9c0-.64-0.06-1-0.06-1.41,0-10.52,0-21,0-31.55,0-1.64.83-1.43,1.82-1.43s1.88-.29,1.86,1.39q-0.13,14.13,0,28.26a3.37,3.37,0,0,1-1.65,3.33C151,199.84,150.45,200.31,149.65,200.9Z"/><path class="c" d="M130.85,194.07c-1-1.39-1.89-2.79-2.86-4.16a2.73,2.73,0,0,1-.39-1.71c0-6.78,0-13.56,0-20.34,0-1.17.37-1.41,1.45-1.38,2.19,0.07,2.19,0,2.19,2.24q0,11.89,0,23.78V194Z"/><path class="c" d="M156.89,193.88q0-10.43,0-20.85c0-1.79,0-3.58,0-5.37,0-.93.27-1.17,1.18-1.17,2.45,0,2.45,0,2.45,2.41,0,5.92-.08,11.84,0,17.76a7.27,7.27,0,0,1-1.61,4.93c-0.61.77-1.17,1.58-1.76,2.37Z"/><path class="b" d="M220,230.39a8.49,8.49,0,1,1-8.44,8.42A8.31,8.31,0,0,1,220,230.39Zm0.07,1.35A7.17,7.17,0,0,0,220,246,7.17,7.17,0,0,0,220,231.74Z"/><path class="c" d="M123.88,180.66a54.74,54.74,0,0,1-3.28-13.24c-0.1-.81.15-0.89,0.84-0.91,2.44-.08,2.44-0.11,2.44,2.38Q123.88,174.77,123.88,180.66Z"/><path class="c" d="M164.25,180.44c0-4.28,0-8.57,0-12.85,0-2.13,1.61-.81,2.44-1,1.14-.29.77,0.69,0.69,1.26A52.72,52.72,0,0,1,164.25,180.44Z"/><polygon class="c" points="64.33 188.64 64.41 188.66 64.35 188.62 64.33 188.64"/><path class="b" d="M125.1,226a0.65,0.65,0,0,1-.09.1,0.19,0.19,0,0,1-.08,0l0.18,0Z"/><path class="d" d="M158.25,153.08c-1.16-1.21-2.17-1-3.25.09a2.15,2.15,0,0,0-1-3.22c1.43,0,2.45-.29,2.62-1.95,0.22,1.62,1.16,2.09,2.67,1.91C158.06,150.71,157.39,151.6,158.25,153.08Z"/><path class="d" d="M134.07,149.79c-1.15,1-2.13,1.76-.93,3.31-1.23-1-2.28-1.2-3.42,0,0.83-1.46.31-2.4-1-3.17,1.44,0.12,2.46-.19,2.59-1.87C131.75,149.39,132.34,150.38,134.07,149.79Z"/><path class="d" d="M137.72,146.49c0.28,1.45,1,2.18,2.54,1.89-1.08.83-1.73,1.69-.88,3.08-1.12-.92-2.17-1.15-3.26.06,0.58-1.36.41-2.38-1-3.09A2.09,2.09,0,0,0,137.72,146.49Z"/><path class="d" d="M146.87,146.6c-1.58,1.46-1.58,1.46-1.23,3.45-1-1-2-1.45-3.14-.11,0.38-1.31.56-2.48-1.17-3.07,1.63,0.21,2.46-.37,2.69-1.91C144.37,146.34,145,147.17,146.87,146.6Z"/><path class="d" d="M152.94,148.39c-1.16.77-1.88,1.59-1,3-1.12-.8-2.16-1.16-3.28,0,0.74-1.43.17-2.32-1-3.09,1.5,0.23,2.37-.29,2.62-1.85C150.56,148.1,151.45,148.62,152.94,148.39Z"/><path class="d" d="M123.36,161.09c0.53-1.83.53-1.83-1-3.24,1.45,0.17,2.45-.17,2.57-1.8,0.46,1.27,1,2.24,2.75,1.8-1.26.79-1.77,1.74-.9,3.27a5,5,0,0,0-1.77-.92A4.82,4.82,0,0,0,123.36,161.09Z"/><path class="d" d="M138.46,161.1c0.72-1.44.34-2.43-1.13-3.12,2-.26,2-0.26,2.86-2,0.17,1.59,1,2.14,2.49,1.85-1,.87-1.89,1.72-0.9,3.2C140.63,160.06,139.58,159.89,138.46,161.1Z"/><path class="d" d="M153.86,161c0.7-1.43.22-2.36-1.06-3.1,1.35,0,2.55-.08,2.56-2,0.38,1.57,1.15,2.26,2.74,1.9-1.21.81-1.89,1.71-1,3.18C156,160.23,155,159.75,153.86,161Z"/><path class="d" d="M160.35,157.91c1.52,0.16,2.47-.23,2.56-2,0.4,1.45,1.07,2.28,2.7,1.89-1.07.84-2,1.65-1,3.17a2.1,2.1,0,0,0-3.3.06A2.07,2.07,0,0,0,160.35,157.91Z"/><path class="d" d="M150.83,157.71c-1.7,1.49-1.7,1.49-1.32,3.41-1-1-2.06-1.19-3.18-.06,0.74-1.45.21-2.4-1.06-3.17,1.49,0.23,2.42-.21,2.65-1.82C148.21,157.55,149,158.15,150.83,157.71Z"/><path class="d" d="M130.93,161c0.78-1.34.38-2.27-1-3,1.29,0,2.4-.17,2.61-1.82a2,2,0,0,0,2.61,1.7c-1,.84-1.86,1.7-0.83,3.19C132.5,160.08,132.5,160.08,130.93,161Z"/><path class="d" d="M126.62,154.58c-1.15-1.1-2.16-1-3.21.14,0.41-1.27.79-2.43-1-3,1.4,0,2.36-.44,2.41-2.23,0.65,1.33.93,2.75,2.81,2C126.34,152.25,126,153.21,126.62,154.58Z"/><path class="d" d="M161.34,154.69c0.57-1.39.55-2.39-1-3.05a2.07,2.07,0,0,0,2.57-2c0.32,1.39,1,2.18,2.59,1.84-1.44,1.38-1.44,1.38-.81,3.37C163.49,153.8,162.39,153.27,161.34,154.69Z"/><path class="b" d="M221.79,239.08c1.48,1.11,1.26,2.8,1.71,4.23,0.12,0.38-.1.54-0.46,0.56a1,1,0,0,1-1.21-.62c-0.15-.47-0.2-1-0.33-1.45a5.47,5.47,0,0,0-.41-1.26,1.87,1.87,0,0,0-2.24-.73c-0.75.15-.35,0.9-0.4,1.38a14.67,14.67,0,0,0,0,1.94c0,0.63-.35.72-0.86,0.74a0.59,0.59,0,0,1-.67-0.74c0-2.69,0-5.37,0-8.06a0.77,0.77,0,0,1,.89-0.91c0.84,0,1.69-.09,2.53,0,1.22,0.08,2.45.32,2.89,1.68A2.48,2.48,0,0,1,221.79,239.08ZM218.43,237c0.22,0.5-.58,1.61.9,1.58s2.49-.66,2.4-1.63c-0.12-1.34-1.16-1.54-2.25-1.63C218.16,235.19,218.44,236.13,218.43,237Z"/></svg>